<svg viewBox="0 0 100 100" fill="none" xmlns="http://www.w3.org/2000/svg">
  <defs>
    <linearGradient id="grad" x1="0%" y1="0%" x2="100%" y2="100%">
      <stop offset="0%" stop-color="#3B82F6" />
      <stop offset="100%" stop-color="#8B5CF6" />
    </linearGradient>
  </defs>
  <circle cx="50" cy="50" r="46" fill="url(#grad)" />
  <path d="M25 55 C20 45, 22 35, 30 30 C35 27, 40 28, 42 32 L38 45 C36 50, 32 52, 28 50 Z" fill="white" fill-opacity="0.9" />
  <path d="M75 55 C80 45, 78 35, 70 30 C65 27, 60 28, 58 32 L62 45 C64 50, 68 52, 72 50 Z" fill="white" fill-opacity="0.9" />
  <ellipse cx="50" cy="52" rx="18" ry="16" fill="white" fill-opacity="0.9" />
  <circle cx="43" cy="48" r="4" fill="#3B82F6" />
  <circle cx="57" cy="48" r="4" fill="#3B82F6" />
  <line x1="50" y1="36" x2="50" y2="26" stroke="white" stroke-width="3" stroke-linecap="round" stroke-opacity="0.9" />
  <circle cx="50" cy="24" r="4" fill="white" fill-opacity="0.9" />
</svg>
